<svg width="636" height="277" viewBox="0 0 636 277" fill="none" xmlns="http://www.w3.org/2000/svg">
<g clip-path="url(#clip0_5_2)">
<path d="M502.5 180.5L507.2 168H480.6C473.3 168 466.8 172.5 464.2 179.3L459.5 191.8H486.1C493.4 191.8 499.9 187.3 502.5 180.5Z" fill="#0F5837"/>
<path d="M420 179.3L415.3 191.8H441.9C449.2 191.8 455.7 187.3 458.3 180.5L463 168H436.4C429.1 168 422.6 172.5 420 179.3Z" fill="#0F5837"/>
<path d="M69.7 131.7C77 131.7 83.5 127.2 86.1 120.4L90.8 107.9H64.2C56.9 107.9 50.4 112.4 47.8 119.2L43.1 131.7H69.7Z" fill="#0F5837"/>
<path d="M167.4 120.3L172.1 107.8H145.5C138.2 107.8 131.7 112.3 129.1 119.1L124.4 131.6H151C158.3 131.6 164.8 127.1 167.4 120.3Z" fill="#0F5837"/>
<path d="M43 120.3L47.7 107.8H21.1C13.8 107.8 7.3 112.3 4.7 119.1L0 131.7H26.6C33.9 131.7 40.4 127.2 43 120.4V120.3Z" fill="#0F5837"/>
<path d="M633.8 40.5C637.7 28.5 634.2 15 623.8 6.6C618.3 2.2 611.4 0 604.3 0H368.4C355.8 0 344.2 7.9 339.6 19.7L290.2 149.5L290 150.1C289.6 151.2 289.3 152.2 289.1 153.3C288.7 154.8 288.5 156.2 288.5 157.6V172.2C288.5 177 290.5 181.6 294.1 184.8L307.4 196.7C309.2 198.2 310.6 199.6 311.3 200.7C312.1 201.8 312.4 203.1 312.4 204.5C312.4 206.6 311.7 208 310.2 208.8C308.7 209.6 306 210 302.1 210H254.3C246.9 209.9 243.2 206.1 243.2 198.6V125C243.2 115.7 235.6 108.1 226.3 108.1H223.6V198.6C223.6 206.2 219.2 210 210.5 210H167.8L167.5 209.2C171.6 205.1 174.5 200.7 176.1 196.1C177.7 191.5 178.5 187 178.5 182.6C178.5 178.2 177.7 173.1 176.2 168.8C174.7 164.5 172.5 160.8 169.7 157.5C166.9 154.3 163.5 151.8 159.5 149.9C155.5 148.1 151.2 147.1 146.4 147.1C141.6 147.1 137.2 148 133.3 149.9C129.3 151.7 125.9 154.3 123.1 157.5C120.3 160.7 118.1 164.5 116.6 168.8C115.1 173.1 114.3 177.7 114.3 182.6C114.3 187.5 115.1 191.4 116.7 196.1C118.3 200.7 121.1 205.1 125.3 209.2L125 210H78.7C75.1 210 72.6 209.3 71.1 208.1C69.6 206.8 68.9 204.5 68.9 201.2V165.8C68.9 156.5 61.3 148.9 52 148.9H49.3V157.9L31 167C22.6 171.1 16 176 11 181.6C5.99998 187.2 3.59998 194.4 3.59998 203.4C3.59998 212.4 5.59998 216.9 9.49998 221.1C13.4 225.3 19.3 227.4 27.1 227.4C34.9 227.4 33.2 227 35.6 226.3C38 225.6 40.1 224.5 41.8 222.9C43.5 221.3 45 219.2 46.1 216.6C47.2 214 48.2 210.8 49.1 207H50.1V207.8C50.1 216.1 52.4 222.6 57 227.3C61.6 232 68.8 234.4 78.7 234.6H113.7C119.6 234.6 125.3 233.8 130.8 232.3C136.3 230.8 141.6 228.1 146.6 224.2C151.6 228.1 156.9 230.8 162.4 232.3C167.9 233.8 173.7 234.6 179.5 234.6H201.7C208.6 234.6 213.8 232.8 217.4 229.3C221 225.8 223.5 220.2 224.9 212.6H225.9C227.4 220.2 230.5 225.8 235.2 229.3C239.9 232.8 246.7 234.6 255.6 234.6H255.7C255.7 234.5 298.9 234.6 298.9 234.6C302.2 234.6 305.1 234 307.7 232.8C310.3 231.6 312.5 229.9 314.4 227.8C316.2 225.7 317.7 223.2 318.6 220.4C319.6 217.6 320.1 214.5 320.1 211.3C320.1 208.1 319.9 206.8 319.4 204.8L320.2 204.3L324.6 209.7C328.6 214.7 332.2 218.8 335.4 222C338.6 225.2 341.7 227.8 344.6 229.7C347.5 231.6 350.5 232.9 353.5 233.6C354.8 233.9 356.1 234.1 357.5 234.3C358 234.3 468.9 234.4 468.9 234.4C476.2 234.4 482.7 229.9 485.3 223L490 210.5H368.3C363.1 210.5 359.3 209.2 355.1 207.1C352.8 206 350.2 204.4 347.4 202.4C344.6 200.4 341.5 197.8 338 194.5L308.4 167.7L308.8 166.5L361.7 28.4C362.7 25.8 365.3 24 368.1 24H604.3C607.6 24 609.4 26.1 610 27C610.7 27.9 612 30.3 610.8 33.4L608 40.6L536.5 227.4L528.9 247.3C527.9 250 525.3 251.7 522.5 251.7L261.6 252.5C254.3 252.5 247.8 257 245.2 263.8L240.4 276.4L522.4 275.6C535 275.6 546.6 267.7 551.1 255.9L552.4 252.6L626.2 60L633.1 42C633.1 41.7 633.3 41.3 633.4 41V40.8L633.8 40.5ZM49.4 194.6C49.4 197.8 48.2 199.9 45.7 201.1C43.2 202.3 38.9 202.9 32.6 202.9C26.3 202.9 24.5 202.3 22.7 201.2C20.9 200.1 20 198.1 20 195.4C20 192.7 20.4 192.5 21.1 191.3C21.8 190.1 22.9 188.9 24.4 187.8C25.9 186.7 27.7 185.5 29.8 184.5C31.9 183.4 34.5 182.2 37.4 180.7L49.5 175V194.6H49.4ZM159.1 198.1C156.3 201.5 152.1 204.8 146.6 208C141.1 204.8 136.9 201.6 134 198.1C131.2 194.7 129.8 190.8 129.8 186.4C129.8 182 131.3 178.3 134.4 175.6C137.4 173 141.2 171.7 145.7 171.7H147.6C152.1 171.7 155.8 173 158.9 175.6C161.9 178.2 163.5 181.8 163.5 186.4C163.5 191 162.1 194.6 159.3 198.1H159.1Z" fill="#0F5837"/>
<path d="M531.1 79.6H376.5L381.2 67.1C383.8 60.3 390.3 55.8 397.6 55.8H551.8L546.9 68.7C544.4 75.3 538.1 79.6 531.1 79.6Z" fill="#17221D"/>
<path d="M506.3 135.4H351.7L356.4 122.9C359 116.1 365.5 111.6 372.8 111.6H527L522.1 124.5C519.6 131.1 513.3 135.4 506.3 135.4Z" fill="#17221D"/>
</g>
<defs>
<clipPath id="clip0_5_2">
<rect width="635.4" height="276.4" fill="white"/>
</clipPath>
</defs>
</svg>
